<svg width="323" height="239" viewBox="0 0 323 239" fill="none" xmlns="http://www.w3.org/2000/svg">
<rect width="323" height="239" fill="white"/>
<path d="M138.845 220.119C180.705 220.119 214.638 218.005 214.638 215.397C214.638 212.789 180.705 210.675 138.845 210.675C96.9854 210.675 63.0515 212.789 63.0515 215.397C63.0515 218.005 96.9854 220.119 138.845 220.119Z" fill="#90CAF9"/>
<path opacity="0.8" d="M138.845 220.119C180.705 220.119 214.638 218.005 214.638 215.397C214.638 212.789 180.705 210.675 138.845 210.675C96.9854 210.675 63.0515 212.789 63.0515 215.397C63.0515 218.005 96.9854 220.119 138.845 220.119Z" fill="white"/>
<path d="M195.8 35.8473H119.59C114.329 35.8473 110.063 40.1126 110.063 45.3742V206.267C110.063 211.529 114.329 215.794 119.59 215.794H195.8C201.062 215.794 205.327 211.529 205.327 206.267V45.3742C205.327 40.1126 201.062 35.8473 195.8 35.8473Z" fill="#263238"/>
<path d="M201.091 55.6071H114.295V196.034H201.091V55.6071Z" fill="white" stroke="#263238" stroke-width="1.33739" stroke-miterlimit="10"/>
<path d="M170.998 112.47C178.346 105.123 178.346 93.211 170.998 85.8639C163.651 78.5168 151.739 78.5168 144.392 85.8639C137.045 93.211 137.045 105.123 144.392 112.47C151.739 119.817 163.651 119.817 170.998 112.47Z" fill="#90CAF9"/>
<path d="M182.395 187.204H133C132.889 187.204 132.779 187.183 132.676 187.141C132.573 187.099 132.48 187.037 132.401 186.959C132.322 186.88 132.259 186.787 132.217 186.684C132.174 186.582 132.152 186.472 132.152 186.36C132.151 186.249 132.173 186.138 132.215 186.035C132.258 185.932 132.32 185.838 132.399 185.759C132.478 185.68 132.572 185.618 132.675 185.575C132.778 185.533 132.889 185.512 133 185.512H182.395C182.506 185.512 182.616 185.534 182.719 185.577C182.822 185.62 182.915 185.682 182.993 185.761C183.072 185.84 183.134 185.933 183.176 186.036C183.218 186.139 183.239 186.249 183.238 186.36C183.238 186.584 183.15 186.799 182.991 186.957C182.833 187.115 182.619 187.204 182.395 187.204Z" fill="#90CAF9"/>
<path d="M184.003 128.557H131.387C130.301 128.557 129.421 129.437 129.421 130.523V136.726C129.421 137.811 130.301 138.692 131.387 138.692H184.003C185.089 138.692 185.97 137.811 185.97 136.726V130.523C185.97 129.437 185.089 128.557 184.003 128.557Z" fill="#90CAF9"/>
<path d="M184.003 147.513H131.387C130.301 147.513 129.421 148.393 129.421 149.479V155.681C129.421 156.767 130.301 157.647 131.387 157.647H184.003C185.089 157.647 185.97 156.767 185.97 155.681V149.479C185.97 148.393 185.089 147.513 184.003 147.513Z" fill="#90CAF9"/>
<path d="M167.063 108.552L161.527 105.365V102.732C162.329 101.762 162.909 100.629 163.229 99.4122C163.419 99.4799 163.62 99.5147 163.822 99.5152C164.508 99.5152 164.945 97.3872 165.018 95.8672C165.817 94.1756 164.729 93.1852 164.729 93.1852C164.729 93.1852 165.18 92.7341 165.479 90.9248C165.778 89.1155 164.425 89.8706 163.371 88.2134C162.317 86.5561 161.561 84.7517 158.1 84.7517C157.146 84.7203 156.205 84.9766 155.399 85.4873C154.592 85.998 153.958 86.7394 153.579 87.6152C152.717 87.6183 151.859 87.7186 151.02 87.9143C149.961 88.2134 149.661 91.6799 150.564 93.0381C150.967 93.7803 151.183 94.6104 151.191 95.4554C150.951 95.1612 150.701 95.0827 150.564 95.7496C150.265 97.2548 151.471 99.3632 151.471 99.3632L152.093 99.1867C152.407 100.487 153.012 101.699 153.863 102.732V105.365L148.328 108.552C147.681 108.925 147.144 109.462 146.771 110.108C146.397 110.754 146.2 111.488 146.2 112.234V114.058C149.492 116.601 153.535 117.981 157.695 117.981C161.856 117.981 165.898 116.601 169.191 114.058V112.234C169.191 111.487 168.995 110.754 168.621 110.107C168.247 109.461 167.71 108.924 167.063 108.552Z" fill="#263238"/>
<path d="M136.585 155.127C136.458 155.125 136.336 155.074 136.246 154.985C136.198 154.942 136.16 154.889 136.133 154.83C136.107 154.771 136.094 154.706 136.094 154.642C136.096 154.553 136.121 154.467 136.168 154.392L137.05 152.98L135.329 153.034C135.265 153.038 135.2 153.028 135.139 153.005C135.078 152.982 135.023 152.947 134.976 152.901C134.896 152.811 134.852 152.695 134.852 152.575C134.852 152.455 134.896 152.339 134.976 152.249C135.022 152.202 135.077 152.165 135.138 152.141C135.199 152.117 135.264 152.107 135.329 152.112L137.026 152.175L136.153 150.768C136.106 150.692 136.08 150.603 136.08 150.513C136.079 150.449 136.092 150.384 136.119 150.325C136.145 150.266 136.183 150.213 136.232 150.17C136.322 150.081 136.443 150.03 136.57 150.028C136.653 150.028 136.735 150.053 136.805 150.098C136.876 150.143 136.932 150.207 136.967 150.283L137.805 151.798L138.634 150.293C138.673 150.212 138.734 150.144 138.809 150.096C138.884 150.047 138.971 150.021 139.061 150.018C139.123 150.018 139.184 150.032 139.24 150.057C139.297 150.082 139.348 150.119 139.389 150.165C139.479 150.258 139.529 150.384 139.527 150.513C139.526 150.598 139.504 150.68 139.463 150.754L138.575 152.175L140.296 152.112C140.362 152.107 140.427 152.117 140.488 152.141C140.549 152.165 140.604 152.202 140.649 152.249C140.733 152.336 140.779 152.452 140.777 152.573C140.777 152.694 140.731 152.811 140.649 152.901C140.603 152.947 140.548 152.982 140.487 153.005C140.426 153.028 140.361 153.038 140.296 153.034L138.565 152.98L139.428 154.377C139.477 154.455 139.502 154.545 139.502 154.637C139.502 154.767 139.45 154.892 139.358 154.984C139.266 155.076 139.142 155.127 139.012 155.127C138.928 155.126 138.846 155.1 138.776 155.053C138.706 155.006 138.652 154.94 138.619 154.862L137.801 153.391L136.987 154.862C136.951 154.939 136.894 155.005 136.823 155.051C136.752 155.098 136.67 155.124 136.585 155.127Z" fill="#263238"/>
<path d="M144.538 155.127C144.411 155.125 144.289 155.074 144.199 154.985C144.151 154.942 144.113 154.889 144.086 154.83C144.06 154.771 144.047 154.706 144.047 154.642C144.049 154.553 144.074 154.467 144.121 154.392L145.003 152.98L143.287 153.034C143.222 153.036 143.156 153.026 143.095 153.004C143.033 152.981 142.977 152.946 142.929 152.901C142.864 152.834 142.821 152.749 142.805 152.657C142.789 152.565 142.801 152.47 142.84 152.385C142.878 152.299 142.942 152.228 143.021 152.179C143.101 152.131 143.194 152.107 143.287 152.112L144.979 152.175L144.106 150.768C144.059 150.692 144.033 150.603 144.033 150.513C144.032 150.449 144.045 150.384 144.072 150.325C144.098 150.266 144.136 150.213 144.185 150.17C144.275 150.081 144.396 150.03 144.523 150.028C144.606 150.028 144.688 150.053 144.758 150.098C144.829 150.143 144.885 150.207 144.92 150.283L145.758 151.798L146.587 150.293C146.626 150.212 146.687 150.144 146.762 150.096C146.837 150.047 146.924 150.021 147.014 150.018C147.076 150.018 147.137 150.031 147.194 150.056C147.25 150.082 147.301 150.119 147.342 150.165C147.388 150.211 147.424 150.265 147.448 150.325C147.472 150.385 147.485 150.449 147.484 150.513C147.483 150.598 147.459 150.681 147.416 150.754L146.528 152.175L148.254 152.122C148.319 152.117 148.384 152.127 148.444 152.151C148.504 152.175 148.558 152.212 148.602 152.259C148.686 152.346 148.732 152.462 148.73 152.582C148.729 152.704 148.684 152.821 148.602 152.911C148.557 152.957 148.503 152.992 148.443 153.015C148.383 153.038 148.318 153.047 148.254 153.043L146.518 152.989L147.381 154.387C147.43 154.465 147.455 154.555 147.455 154.647C147.455 154.777 147.403 154.901 147.311 154.993C147.219 155.085 147.095 155.137 146.965 155.137C146.881 155.136 146.799 155.11 146.729 155.063C146.659 155.016 146.605 154.95 146.572 154.872L145.754 153.401L144.94 154.872C144.902 154.947 144.845 155.011 144.774 155.056C144.703 155.101 144.621 155.125 144.538 155.127Z" fill="#263238"/>
<path d="M152.495 155.127C152.367 155.127 152.244 155.076 152.152 154.985C152.104 154.942 152.065 154.889 152.039 154.83C152.013 154.771 152 154.706 152 154.642C152.002 154.553 152.027 154.467 152.074 154.392L152.956 152.98L151.24 153.034C151.148 153.037 151.056 153.013 150.978 152.965C150.899 152.916 150.836 152.846 150.798 152.761C150.759 152.677 150.747 152.584 150.762 152.492C150.777 152.401 150.819 152.316 150.882 152.249C150.929 152.202 150.985 152.165 151.046 152.141C151.108 152.118 151.174 152.108 151.24 152.112L152.932 152.175L152.059 150.768C152.012 150.692 151.986 150.603 151.986 150.513C151.987 150.449 152.001 150.385 152.027 150.327C152.053 150.268 152.091 150.214 152.138 150.17C152.229 150.079 152.352 150.028 152.481 150.028C152.563 150.029 152.644 150.054 152.713 150.099C152.783 150.144 152.838 150.208 152.873 150.283L153.711 151.798L154.54 150.293C154.579 150.212 154.64 150.144 154.715 150.096C154.79 150.047 154.877 150.021 154.967 150.018C155.029 150.018 155.09 150.031 155.147 150.056C155.203 150.082 155.254 150.119 155.295 150.165C155.341 150.211 155.377 150.265 155.401 150.325C155.425 150.385 155.438 150.449 155.437 150.513C155.436 150.598 155.412 150.681 155.369 150.754L154.481 152.175L156.207 152.112C156.271 152.105 156.335 152.113 156.395 152.133C156.455 152.154 156.511 152.187 156.557 152.231C156.604 152.274 156.64 152.327 156.664 152.386C156.689 152.445 156.7 152.509 156.697 152.573C156.699 152.693 156.655 152.81 156.575 152.901C156.529 152.947 156.473 152.982 156.413 153.005C156.352 153.028 156.287 153.038 156.222 153.034L154.491 152.98L155.349 154.377C155.397 154.455 155.423 154.545 155.423 154.637C155.421 154.701 155.407 154.765 155.381 154.824C155.355 154.882 155.317 154.936 155.271 154.98C155.228 155.026 155.176 155.063 155.119 155.088C155.062 155.113 155 155.127 154.937 155.127C154.854 155.126 154.773 155.1 154.704 155.053C154.635 155.006 154.582 154.94 154.55 154.862L153.726 153.391L152.912 154.862C152.876 154.942 152.817 155.009 152.743 155.056C152.669 155.103 152.583 155.128 152.495 155.127Z" fill="#263238"/>
<path d="M160.448 155.127C160.32 155.127 160.197 155.076 160.105 154.985C160.013 154.894 159.96 154.771 159.958 154.642C159.957 154.554 159.98 154.467 160.027 154.392L160.909 152.98L159.193 153.034C159.128 153.036 159.062 153.026 159.001 153.004C158.939 152.981 158.883 152.946 158.835 152.901C158.755 152.811 158.711 152.695 158.711 152.575C158.711 152.455 158.755 152.339 158.835 152.249C158.883 152.203 158.939 152.168 159 152.144C159.062 152.12 159.127 152.109 159.193 152.112L160.89 152.175L160.022 150.768C159.974 150.692 159.949 150.603 159.948 150.513C159.95 150.449 159.964 150.385 159.99 150.327C160.016 150.268 160.054 150.214 160.1 150.17C160.192 150.079 160.315 150.028 160.444 150.028C160.527 150.028 160.609 150.053 160.679 150.098C160.749 150.143 160.805 150.207 160.841 150.283L161.674 151.798L162.503 150.293C162.542 150.212 162.603 150.144 162.678 150.096C162.753 150.047 162.84 150.021 162.929 150.018C162.992 150.018 163.053 150.031 163.11 150.056C163.166 150.082 163.217 150.119 163.258 150.165C163.303 150.211 163.339 150.265 163.364 150.325C163.388 150.385 163.401 150.449 163.4 150.513C163.398 150.598 163.375 150.681 163.332 150.754L162.444 152.175L164.17 152.112C164.233 152.105 164.297 152.113 164.358 152.133C164.418 152.154 164.474 152.187 164.52 152.231C164.566 152.274 164.603 152.327 164.627 152.386C164.651 152.445 164.663 152.509 164.66 152.573C164.661 152.693 164.618 152.81 164.538 152.901C164.491 152.947 164.436 152.982 164.375 153.005C164.314 153.028 164.25 153.038 164.185 153.034L162.454 152.98L163.312 154.377C163.36 154.455 163.386 154.545 163.385 154.637C163.386 154.702 163.373 154.766 163.346 154.825C163.32 154.884 163.282 154.937 163.233 154.98C163.191 155.026 163.139 155.063 163.082 155.088C163.025 155.113 162.963 155.127 162.9 155.127C162.817 155.126 162.736 155.1 162.667 155.053C162.598 155.006 162.544 154.94 162.513 154.862L161.689 153.391L160.875 154.862C160.838 154.943 160.777 155.012 160.701 155.059C160.626 155.106 160.538 155.13 160.448 155.127Z" fill="#263238"/>
<path d="M168.401 155.127C168.273 155.127 168.15 155.076 168.058 154.985C167.982 154.908 167.934 154.808 167.921 154.701C167.907 154.594 167.93 154.485 167.985 154.392L168.862 152.98L167.146 153.034C167.081 153.036 167.015 153.026 166.954 153.004C166.892 152.981 166.836 152.946 166.788 152.901C166.708 152.811 166.664 152.695 166.664 152.575C166.664 152.455 166.708 152.339 166.788 152.249C166.836 152.203 166.892 152.168 166.953 152.144C167.015 152.12 167.08 152.109 167.146 152.112L168.843 152.175L167.97 150.768C167.922 150.692 167.897 150.603 167.896 150.513C167.898 150.384 167.951 150.261 168.043 150.17C168.135 150.079 168.258 150.028 168.387 150.028C168.47 150.028 168.552 150.053 168.622 150.098C168.693 150.143 168.749 150.207 168.784 150.283L169.617 151.798L170.446 150.293C170.485 150.212 170.546 150.144 170.621 150.096C170.696 150.047 170.783 150.021 170.873 150.018C170.935 150.018 170.998 150.031 171.055 150.056C171.112 150.081 171.164 150.119 171.206 150.165C171.296 150.258 171.345 150.384 171.343 150.513C171.342 150.598 171.318 150.681 171.275 150.754L170.387 152.175L172.113 152.112C172.177 152.105 172.241 152.113 172.301 152.133C172.361 152.154 172.417 152.187 172.463 152.231C172.51 152.274 172.546 152.327 172.57 152.386C172.595 152.445 172.606 152.509 172.603 152.573C172.604 152.694 172.561 152.81 172.481 152.901C172.435 152.947 172.379 152.982 172.318 153.005C172.258 153.028 172.193 153.038 172.128 153.034L170.397 152.98L171.255 154.377C171.303 154.455 171.329 154.545 171.329 154.637C171.329 154.702 171.316 154.766 171.29 154.825C171.263 154.884 171.225 154.937 171.177 154.98C171.134 155.026 171.082 155.063 171.025 155.088C170.968 155.113 170.906 155.127 170.843 155.127C170.76 155.126 170.679 155.1 170.61 155.053C170.541 155.006 170.487 154.94 170.456 154.862L169.632 153.391L168.818 154.862C168.781 154.942 168.723 155.009 168.649 155.056C168.575 155.103 168.489 155.128 168.401 155.127Z" fill="#263238"/>
<path d="M176.354 155.127C176.227 155.125 176.106 155.074 176.016 154.985C175.968 154.942 175.929 154.889 175.903 154.83C175.877 154.771 175.864 154.706 175.864 154.642C175.866 154.553 175.891 154.467 175.938 154.392L176.815 152.98L175.099 153.034C175.036 153.038 174.973 153.03 174.913 153.009C174.853 152.988 174.799 152.954 174.752 152.911C174.706 152.868 174.67 152.815 174.645 152.757C174.62 152.699 174.608 152.636 174.609 152.573C174.609 152.513 174.62 152.453 174.643 152.398C174.665 152.342 174.699 152.292 174.741 152.249C174.786 152.202 174.841 152.165 174.902 152.141C174.963 152.117 175.029 152.107 175.094 152.112L176.791 152.175L175.918 150.768C175.871 150.692 175.845 150.603 175.844 150.513C175.846 150.384 175.899 150.261 175.992 150.17C176.083 150.079 176.206 150.028 176.335 150.028C176.418 150.028 176.5 150.053 176.57 150.098C176.641 150.143 176.697 150.207 176.732 150.283L177.565 151.798L178.399 150.293C178.438 150.213 178.498 150.145 178.572 150.097C178.646 150.049 178.732 150.021 178.821 150.018C178.883 150.018 178.946 150.031 179.003 150.056C179.061 150.081 179.112 150.119 179.154 150.165C179.244 150.258 179.293 150.384 179.291 150.513C179.291 150.598 179.269 150.68 179.228 150.754L178.34 152.175L180.061 152.112C180.126 152.107 180.192 152.117 180.253 152.141C180.314 152.165 180.369 152.202 180.414 152.249C180.498 152.336 180.544 152.452 180.542 152.573C180.541 152.694 180.496 152.811 180.414 152.901C180.368 152.947 180.313 152.982 180.252 153.005C180.191 153.028 180.126 153.038 180.061 153.034L178.33 152.98L179.188 154.377C179.237 154.455 179.262 154.545 179.262 154.637C179.26 154.766 179.207 154.89 179.115 154.98C179.026 155.071 178.904 155.124 178.777 155.127C178.693 155.126 178.612 155.1 178.543 155.053C178.474 155.006 178.421 154.94 178.389 154.862L177.565 153.391L176.752 154.862C176.716 154.939 176.66 155.004 176.59 155.051C176.52 155.098 176.439 155.124 176.354 155.127Z" fill="#263238"/>
<g style="mix-blend-mode:multiply">
<path d="M201.091 55.7935H114.295V61.2311H201.091V55.7935Z" fill="#90CAF9"/>
</g>
<path d="M167.131 45.7762H148.254C147.913 45.7762 147.587 45.6409 147.346 45.4C147.105 45.159 146.97 44.8323 146.97 44.4916C146.97 44.1509 147.105 43.8241 147.346 43.5832C147.587 43.3423 147.913 43.207 148.254 43.207H167.131C167.472 43.207 167.799 43.3423 168.04 43.5832C168.281 43.8241 168.416 44.1509 168.416 44.4916C168.416 44.8323 168.281 45.159 168.04 45.4C167.799 45.6409 167.472 45.7762 167.131 45.7762Z" fill="#90CAF9" stroke="#263238" stroke-width="1.33739" stroke-linecap="round" stroke-linejoin="round"/>
<path d="M162.841 203.968C162.842 202.949 162.541 201.953 161.976 201.106C161.41 200.258 160.606 199.598 159.665 199.207C158.724 198.817 157.689 198.715 156.69 198.913C155.691 199.112 154.773 199.602 154.052 200.323C153.332 201.043 152.842 201.961 152.643 202.96C152.445 203.959 152.547 204.994 152.937 205.935C153.328 206.876 153.988 207.68 154.836 208.246C155.683 208.811 156.679 209.112 157.698 209.111C159.061 209.11 160.369 208.568 161.333 207.603C162.298 206.639 162.84 205.332 162.841 203.968Z" fill="#90CAF9"/>
<path d="M160.306 201.359H155.089V206.576H160.306V201.359Z" fill="#90CAF9" stroke="#263238" stroke-width="1.33739" stroke-linecap="round" stroke-linejoin="round"/>
<path d="M219.841 144.767C219.841 144.767 213.006 127.4 219.091 125.335C225.426 123.183 225.146 134.651 224.901 140.241C224.386 152.185 223.067 154.406 222.082 151.489L219.841 144.767ZM217.786 158.314C219.664 160.766 220.194 158.226 216.806 146.757C215.217 141.364 211.765 130.454 206.47 134.548C201.385 138.471 213.486 152.69 213.486 152.69L217.786 158.314ZM214.158 168.268C215.948 169.856 215.982 167.851 211.731 159.569C209.735 155.691 205.514 147.841 202.057 151.724C198.737 155.47 210.049 164.576 210.049 164.576L214.158 168.268ZM210.235 180.104C212.025 181.698 212.059 179.687 207.808 171.411C205.813 167.532 201.591 159.677 198.134 163.566C194.835 167.321 206.112 176.427 206.112 176.427L210.235 180.104ZM221.562 156.01C218.698 157.128 220.973 158.344 232.932 158.309C238.542 158.309 249.995 158.054 247.554 151.822C245.215 145.836 228.181 153.46 228.181 153.46L221.562 156.01ZM218.301 163.973C215.271 164.497 217.262 166.145 228.99 168.488C234.487 169.592 245.759 171.626 244.607 165.056C243.504 158.721 225.293 162.81 225.293 162.81L218.301 163.973ZM214.653 173.696C212.074 174.068 213.722 175.505 223.582 177.76C228.206 178.819 237.693 180.805 236.87 175.201C236.085 169.807 220.591 172.857 220.591 172.857L214.653 173.696ZM211.883 182.703C209.358 183.345 211.147 184.6 221.199 185.797C225.906 186.356 235.551 187.326 234.143 181.84C232.785 176.574 217.703 181.237 217.703 181.237L211.883 182.703ZM226.661 146.238C225.19 149.533 228.245 149.033 238.63 139.971C243.494 135.72 253.251 126.826 245.524 122.398C238.105 118.142 230.128 138.677 230.128 138.677L226.661 146.238ZM212.265 194.436C210.711 195.343 212.236 195.696 219.365 194.274C222.709 193.612 229.51 192.141 227.21 189.239C224.984 186.444 215.864 192.328 215.864 192.328L212.265 194.436Z" fill="#90CAF9"/>
<path opacity="0.3" d="M219.841 144.767C219.841 144.767 213.006 127.4 219.091 125.335C225.426 123.183 225.146 134.651 224.901 140.241C224.386 152.185 223.067 154.406 222.082 151.489L219.841 144.767ZM217.786 158.314C219.664 160.766 220.194 158.226 216.806 146.757C215.217 141.364 211.765 130.454 206.47 134.548C201.385 138.471 213.486 152.69 213.486 152.69L217.786 158.314ZM214.158 168.268C215.948 169.856 215.982 167.851 211.731 159.569C209.735 155.691 205.514 147.841 202.057 151.724C198.737 155.47 210.049 164.576 210.049 164.576L214.158 168.268ZM210.235 180.104C212.025 181.698 212.059 179.687 207.808 171.411C205.813 167.532 201.591 159.677 198.134 163.566C194.835 167.321 206.112 176.427 206.112 176.427L210.235 180.104ZM221.562 156.01C218.698 157.128 220.973 158.344 232.932 158.309C238.542 158.309 249.995 158.054 247.554 151.822C245.215 145.836 228.181 153.46 228.181 153.46L221.562 156.01ZM218.301 163.973C215.271 164.497 217.262 166.145 228.99 168.488C234.487 169.592 245.759 171.626 244.607 165.056C243.504 158.721 225.293 162.81 225.293 162.81L218.301 163.973ZM214.653 173.696C212.074 174.068 213.722 175.505 223.582 177.76C228.206 178.819 237.693 180.805 236.87 175.201C236.085 169.807 220.591 172.857 220.591 172.857L214.653 173.696ZM211.883 182.703C209.358 183.345 211.147 184.6 221.199 185.797C225.906 186.356 235.551 187.326 234.143 181.84C232.785 176.574 217.703 181.237 217.703 181.237L211.883 182.703ZM226.661 146.238C225.19 149.533 228.245 149.033 238.63 139.971C243.494 135.72 253.251 126.826 245.524 122.398C238.105 118.142 230.128 138.677 230.128 138.677L226.661 146.238ZM212.265 194.436C210.711 195.343 212.236 195.696 219.365 194.274C222.709 193.612 229.51 192.141 227.21 189.239C224.984 186.444 215.864 192.328 215.864 192.328L212.265 194.436Z" fill="white"/>
<path d="M222.856 152.852L221.665 133.029L222.856 152.852ZM219.086 159.393L211.554 142.345L219.086 159.393ZM238.522 154.436L220.473 157.025L238.522 154.436ZM215.183 168.582L205.411 156.044L215.183 168.582ZM216.899 164.737L230.363 165.414L216.899 164.737ZM213.712 174.353L224.008 175.372L213.712 174.353ZM211.226 180.462L206.112 172.769L211.226 180.462ZM210.637 183.178L222.743 183.291L210.637 183.178ZM208.186 205.89C208.267 205.884 208.342 205.846 208.396 205.784C208.449 205.723 208.476 205.643 208.47 205.561C207.7 194 212.172 175.064 219.346 159.52C223.93 149.587 241.9 130.062 242.091 129.866C242.149 129.808 242.182 129.73 242.182 129.648C242.182 129.566 242.149 129.487 242.091 129.43C242.063 129.401 242.03 129.379 241.993 129.363C241.956 129.348 241.916 129.34 241.876 129.34C241.836 129.34 241.796 129.348 241.759 129.363C241.722 129.379 241.688 129.401 241.66 129.43C241.479 129.626 223.435 149.224 218.811 159.246C211.505 175.167 207.092 193.759 207.877 205.601C207.883 205.679 207.918 205.752 207.975 205.805C208.032 205.859 208.108 205.889 208.186 205.89ZM222.851 153.156C222.932 153.151 223.008 153.114 223.062 153.054C223.117 152.993 223.145 152.914 223.141 152.832L221.969 132.999C221.967 132.959 221.957 132.919 221.94 132.883C221.922 132.846 221.898 132.813 221.868 132.786C221.838 132.76 221.802 132.739 221.764 132.726C221.726 132.713 221.685 132.707 221.645 132.71C221.564 132.715 221.488 132.752 221.434 132.812C221.38 132.873 221.352 132.952 221.356 133.033L222.547 152.857C222.551 152.935 222.585 153.009 222.641 153.063C222.698 153.116 222.773 153.146 222.851 153.146V153.156ZM219.194 159.672C219.267 159.639 219.325 159.578 219.354 159.503C219.383 159.428 219.382 159.345 219.35 159.27L211.814 142.222C211.782 142.148 211.721 142.09 211.646 142.06C211.57 142.031 211.486 142.033 211.412 142.065C211.338 142.098 211.28 142.158 211.25 142.234C211.221 142.309 211.223 142.393 211.255 142.467L218.787 159.516C218.81 159.57 218.849 159.617 218.899 159.65C218.948 159.683 219.006 159.701 219.066 159.702C219.117 159.704 219.167 159.694 219.213 159.672H219.194ZM220.498 157.319L238.537 154.74C238.58 154.739 238.623 154.729 238.662 154.71C238.702 154.692 238.737 154.665 238.765 154.632C238.793 154.598 238.814 154.56 238.827 154.518C238.839 154.476 238.842 154.432 238.836 154.389C238.83 154.346 238.815 154.304 238.792 154.267C238.769 154.231 238.739 154.199 238.702 154.175C238.666 154.15 238.625 154.134 238.582 154.127C238.54 154.119 238.495 154.121 238.453 154.132L220.414 156.711C220.334 156.716 220.259 156.753 220.205 156.814C220.152 156.875 220.125 156.954 220.13 157.035C220.135 157.115 220.172 157.19 220.233 157.244C220.294 157.297 220.373 157.324 220.454 157.319H220.498ZM215.354 168.827C215.418 168.776 215.46 168.703 215.47 168.622C215.48 168.541 215.458 168.46 215.408 168.395L205.631 155.833C205.581 155.768 205.507 155.726 205.426 155.715C205.345 155.705 205.262 155.727 205.197 155.777C205.132 155.827 205.09 155.901 205.079 155.982C205.069 156.064 205.091 156.146 205.141 156.211L214.938 168.792C214.966 168.829 215.002 168.859 215.044 168.879C215.086 168.899 215.131 168.91 215.178 168.91C215.251 168.906 215.321 168.877 215.374 168.827H215.354ZM230.633 165.429C230.635 165.348 230.606 165.269 230.551 165.209C230.496 165.149 230.42 165.114 230.339 165.11L216.899 164.429C216.823 164.434 216.752 164.466 216.699 164.521C216.646 164.575 216.615 164.646 216.612 164.722C216.608 164.798 216.632 164.872 216.68 164.931C216.727 164.99 216.795 165.029 216.869 165.041L230.334 165.723C230.415 165.726 230.494 165.696 230.553 165.641C230.613 165.586 230.648 165.51 230.652 165.429H230.633ZM224.293 175.402C224.298 175.362 224.294 175.321 224.283 175.282C224.272 175.243 224.253 175.206 224.227 175.175C224.201 175.143 224.17 175.117 224.134 175.098C224.098 175.079 224.059 175.067 224.018 175.064L213.722 174.049C213.682 174.045 213.641 174.048 213.603 174.06C213.564 174.072 213.529 174.091 213.498 174.116C213.467 174.142 213.441 174.173 213.422 174.209C213.403 174.244 213.392 174.283 213.388 174.323C213.381 174.404 213.406 174.484 213.458 174.546C213.509 174.608 213.583 174.648 213.663 174.657L223.959 175.676H223.989C224.068 175.682 224.146 175.656 224.207 175.605C224.267 175.554 224.305 175.481 224.312 175.402H224.293ZM211.373 180.717C211.441 180.672 211.489 180.602 211.505 180.522C211.522 180.442 211.506 180.359 211.461 180.29L206.372 172.597C206.325 172.531 206.255 172.485 206.175 172.47C206.096 172.454 206.013 172.47 205.945 172.514C205.877 172.559 205.83 172.629 205.813 172.709C205.796 172.789 205.812 172.872 205.857 172.94L210.946 180.634C210.976 180.676 211.014 180.71 211.06 180.734C211.105 180.758 211.155 180.771 211.206 180.771C211.273 180.774 211.338 180.755 211.393 180.717H211.373ZM223.052 183.291C223.051 183.21 223.019 183.133 222.962 183.076C222.906 183.018 222.829 182.985 222.748 182.982L210.642 182.869C210.562 182.869 210.484 182.901 210.427 182.958C210.37 183.015 210.338 183.093 210.338 183.173C210.337 183.214 210.344 183.254 210.359 183.292C210.373 183.33 210.396 183.364 210.424 183.393C210.453 183.422 210.487 183.445 210.524 183.46C210.562 183.475 210.602 183.483 210.642 183.482L222.748 183.595C222.79 183.597 222.831 183.591 222.87 183.576C222.909 183.562 222.944 183.54 222.975 183.512C223.005 183.483 223.029 183.449 223.046 183.411C223.062 183.373 223.071 183.333 223.072 183.291H223.052ZM206.808 201.394C206.833 201.34 208.897 195.652 215.104 194.294C215.184 194.276 215.254 194.228 215.298 194.159C215.342 194.09 215.357 194.006 215.34 193.926C215.32 193.848 215.271 193.78 215.202 193.737C215.134 193.694 215.051 193.679 214.972 193.696C208.426 195.127 206.254 201.134 206.23 201.193C206.204 201.27 206.21 201.354 206.246 201.427C206.281 201.501 206.344 201.557 206.421 201.585H206.519C206.584 201.591 206.649 201.575 206.705 201.541C206.761 201.506 206.804 201.455 206.828 201.394H206.808ZM208.186 205.89C208.267 205.884 208.342 205.846 208.396 205.784C208.449 205.723 208.476 205.643 208.47 205.561C207.7 194 212.172 175.064 219.346 159.52C223.93 149.587 241.9 130.062 242.091 129.866C242.149 129.808 242.182 129.73 242.182 129.648C242.182 129.566 242.149 129.487 242.091 129.43C242.063 129.401 242.03 129.379 241.993 129.363C241.956 129.348 241.916 129.34 241.876 129.34C241.836 129.34 241.796 129.348 241.759 129.363C241.722 129.379 241.688 129.401 241.66 129.43C241.479 129.626 223.435 149.224 218.811 159.246C211.505 175.167 207.092 193.759 207.877 205.601C207.883 205.679 207.918 205.752 207.975 205.805C208.032 205.859 208.108 205.889 208.186 205.89ZM222.851 153.156C222.932 153.151 223.008 153.114 223.062 153.054C223.117 152.993 223.145 152.914 223.141 152.832L221.969 132.999C221.967 132.959 221.957 132.919 221.94 132.883C221.922 132.846 221.898 132.813 221.868 132.786C221.838 132.76 221.802 132.739 221.764 132.726C221.726 132.713 221.685 132.707 221.645 132.71C221.564 132.715 221.488 132.752 221.434 132.812C221.38 132.873 221.352 132.952 221.356 133.033L222.547 152.857C222.551 152.935 222.585 153.009 222.641 153.063C222.698 153.116 222.773 153.146 222.851 153.146V153.156ZM219.194 159.672C219.267 159.639 219.325 159.578 219.354 159.503C219.383 159.428 219.382 159.345 219.35 159.27L211.814 142.222C211.782 142.148 211.721 142.09 211.646 142.06C211.57 142.031 211.486 142.033 211.412 142.065C211.338 142.098 211.28 142.158 211.25 142.234C211.221 142.309 211.223 142.393 211.255 142.467L218.787 159.516C218.81 159.57 218.849 159.617 218.899 159.65C218.948 159.683 219.006 159.701 219.066 159.702C219.117 159.704 219.167 159.694 219.213 159.672H219.194ZM220.498 157.319L238.537 154.74C238.58 154.739 238.623 154.729 238.662 154.71C238.702 154.692 238.737 154.665 238.765 154.632C238.793 154.598 238.814 154.56 238.827 154.518C238.839 154.476 238.842 154.432 238.836 154.389C238.83 154.346 238.815 154.304 238.792 154.267C238.769 154.231 238.739 154.199 238.702 154.175C238.666 154.15 238.625 154.134 238.582 154.127C238.54 154.119 238.495 154.121 238.453 154.132L220.414 156.711C220.334 156.716 220.259 156.753 220.205 156.814C220.152 156.875 220.125 156.954 220.13 157.035C220.135 157.115 220.172 157.19 220.233 157.244C220.294 157.297 220.373 157.324 220.454 157.319H220.498ZM215.354 168.827C215.418 168.776 215.46 168.703 215.47 168.622C215.48 168.541 215.458 168.46 215.408 168.395L205.631 155.833C205.607 155.801 205.576 155.774 205.54 155.754C205.505 155.734 205.466 155.72 205.426 155.715C205.386 155.71 205.345 155.713 205.306 155.723C205.266 155.734 205.23 155.752 205.197 155.777C205.165 155.802 205.138 155.833 205.118 155.868C205.098 155.903 205.085 155.942 205.079 155.982C205.074 156.022 205.077 156.063 205.087 156.103C205.098 156.142 205.116 156.179 205.141 156.211L214.938 168.792C214.966 168.829 215.002 168.859 215.044 168.879C215.086 168.899 215.131 168.91 215.178 168.91C215.251 168.906 215.321 168.877 215.374 168.827H215.354ZM230.633 165.429C230.635 165.348 230.606 165.269 230.551 165.209C230.496 165.149 230.42 165.114 230.339 165.11L216.899 164.429C216.823 164.434 216.752 164.466 216.699 164.521C216.646 164.575 216.615 164.646 216.612 164.722C216.608 164.798 216.632 164.872 216.68 164.931C216.727 164.99 216.795 165.029 216.869 165.041L230.334 165.723C230.415 165.726 230.494 165.696 230.553 165.641C230.613 165.586 230.648 165.51 230.652 165.429H230.633ZM224.293 175.402C224.298 175.362 224.294 175.321 224.283 175.282C224.272 175.243 224.253 175.206 224.227 175.175C224.201 175.143 224.17 175.117 224.134 175.098C224.098 175.079 224.059 175.067 224.018 175.064L213.722 174.049C213.682 174.045 213.641 174.048 213.603 174.06C213.564 174.072 213.529 174.091 213.498 174.116C213.467 174.142 213.441 174.173 213.422 174.209C213.403 174.244 213.392 174.283 213.388 174.323C213.381 174.404 213.406 174.484 213.458 174.546C213.509 174.608 213.583 174.648 213.663 174.657L223.959 175.676H223.989C224.068 175.682 224.146 175.656 224.207 175.605C224.267 175.554 224.305 175.481 224.312 175.402H224.293ZM211.373 180.717C211.441 180.672 211.489 180.602 211.505 180.522C211.522 180.442 211.506 180.359 211.461 180.29L206.372 172.597C206.325 172.531 206.255 172.485 206.175 172.47C206.096 172.454 206.013 172.47 205.945 172.514C205.877 172.559 205.83 172.629 205.813 172.709C205.796 172.789 205.812 172.872 205.857 172.94L210.946 180.634C210.976 180.676 211.014 180.71 211.06 180.734C211.105 180.758 211.155 180.771 211.206 180.771C211.273 180.774 211.338 180.755 211.393 180.717H211.373ZM223.052 183.291C223.051 183.21 223.019 183.133 222.962 183.076C222.906 183.018 222.829 182.985 222.748 182.982L210.642 182.869C210.562 182.869 210.484 182.901 210.427 182.958C210.37 183.015 210.338 183.093 210.338 183.173C210.337 183.214 210.344 183.254 210.359 183.292C210.373 183.33 210.396 183.364 210.424 183.393C210.453 183.422 210.487 183.445 210.524 183.46C210.562 183.475 210.602 183.483 210.642 183.482L222.748 183.595C222.79 183.597 222.831 183.591 222.87 183.576C222.909 183.562 222.944 183.54 222.975 183.512C223.005 183.483 223.029 183.449 223.046 183.411C223.062 183.373 223.071 183.333 223.072 183.291H223.052ZM206.808 201.394C206.833 201.34 208.897 195.652 215.104 194.294C215.184 194.276 215.254 194.228 215.298 194.159C215.342 194.09 215.357 194.006 215.34 193.926C215.32 193.848 215.271 193.78 215.202 193.737C215.134 193.694 215.051 193.679 214.972 193.696C208.426 195.127 206.254 201.134 206.23 201.193C206.204 201.27 206.21 201.354 206.246 201.427C206.281 201.501 206.344 201.557 206.421 201.585H206.519C206.584 201.591 206.649 201.575 206.705 201.541C206.761 201.506 206.804 201.455 206.828 201.394H206.808Z" fill="#90CAF9"/>
<path opacity="0.2" d="M222.856 152.852L221.665 133.029L222.856 152.852ZM219.086 159.393L211.554 142.345L219.086 159.393ZM238.522 154.436L220.473 157.025L238.522 154.436ZM215.183 168.582L205.411 156.044L215.183 168.582ZM216.899 164.737L230.363 165.414L216.899 164.737ZM213.712 174.353L224.008 175.372L213.712 174.353ZM211.226 180.462L206.112 172.769L211.226 180.462ZM210.637 183.178L222.743 183.291L210.637 183.178ZM208.186 205.89C208.267 205.884 208.342 205.846 208.396 205.784C208.449 205.723 208.476 205.643 208.47 205.561C207.7 194 212.172 175.064 219.346 159.52C223.93 149.587 241.9 130.062 242.091 129.866C242.149 129.808 242.182 129.73 242.182 129.648C242.182 129.566 242.149 129.487 242.091 129.43C242.063 129.401 242.03 129.379 241.993 129.363C241.956 129.348 241.916 129.34 241.876 129.34C241.836 129.34 241.796 129.348 241.759 129.363C241.722 129.379 241.688 129.401 241.66 129.43C241.479 129.626 223.435 149.224 218.811 159.246C211.505 175.167 207.092 193.759 207.877 205.601C207.883 205.679 207.918 205.752 207.975 205.805C208.032 205.859 208.108 205.889 208.186 205.89ZM222.851 153.156C222.932 153.151 223.008 153.114 223.062 153.054C223.117 152.993 223.145 152.914 223.141 152.832L221.969 132.999C221.967 132.959 221.957 132.919 221.94 132.883C221.922 132.846 221.898 132.813 221.868 132.786C221.838 132.76 221.802 132.739 221.764 132.726C221.726 132.713 221.685 132.707 221.645 132.71C221.564 132.715 221.488 132.752 221.434 132.812C221.38 132.873 221.352 132.952 221.356 133.033L222.547 152.857C222.551 152.935 222.585 153.009 222.641 153.063C222.698 153.116 222.773 153.146 222.851 153.146V153.156ZM219.194 159.672C219.267 159.639 219.325 159.578 219.354 159.503C219.383 159.428 219.382 159.345 219.35 159.27L211.814 142.222C211.782 142.148 211.721 142.09 211.646 142.06C211.57 142.031 211.486 142.033 211.412 142.065C211.338 142.098 211.28 142.158 211.25 142.234C211.221 142.309 211.223 142.393 211.255 142.467L218.787 159.516C218.81 159.57 218.849 159.617 218.899 159.65C218.948 159.683 219.006 159.701 219.066 159.702C219.117 159.704 219.167 159.694 219.213 159.672H219.194ZM220.498 157.319L238.537 154.74C238.58 154.739 238.623 154.729 238.662 154.71C238.702 154.692 238.737 154.665 238.765 154.632C238.793 154.598 238.814 154.56 238.827 154.518C238.839 154.476 238.842 154.432 238.836 154.389C238.83 154.346 238.815 154.304 238.792 154.267C238.769 154.231 238.739 154.199 238.702 154.175C238.666 154.15 238.625 154.134 238.582 154.127C238.54 154.119 238.495 154.121 238.453 154.132L220.414 156.711C220.334 156.716 220.259 156.753 220.205 156.814C220.152 156.875 220.125 156.954 220.13 157.035C220.135 157.115 220.172 157.19 220.233 157.244C220.294 157.297 220.373 157.324 220.454 157.319H220.498ZM215.354 168.827C215.418 168.776 215.46 168.703 215.47 168.622C215.48 168.541 215.458 168.46 215.408 168.395L205.631 155.833C205.581 155.768 205.507 155.726 205.426 155.715C205.345 155.705 205.262 155.727 205.197 155.777C205.132 155.827 205.09 155.901 205.079 155.982C205.069 156.064 205.091 156.146 205.141 156.211L214.938 168.792C214.966 168.829 215.002 168.859 215.044 168.879C215.086 168.899 215.131 168.91 215.178 168.91C215.251 168.906 215.321 168.877 215.374 168.827H215.354ZM230.633 165.429C230.635 165.348 230.606 165.269 230.551 165.209C230.496 165.149 230.42 165.114 230.339 165.11L216.899 164.429C216.823 164.434 216.752 164.466 216.699 164.521C216.646 164.575 216.615 164.646 216.612 164.722C216.608 164.798 216.632 164.872 216.68 164.931C216.727 164.99 216.795 165.029 216.869 165.041L230.334 165.723C230.415 165.726 230.494 165.696 230.553 165.641C230.613 165.586 230.648 165.51 230.652 165.429H230.633ZM224.293 175.402C224.298 175.362 224.294 175.321 224.283 175.282C224.272 175.243 224.253 175.206 224.227 175.175C224.201 175.143 224.17 175.117 224.134 175.098C224.098 175.079 224.059 175.067 224.018 175.064L213.722 174.049C213.682 174.045 213.641 174.048 213.603 174.06C213.564 174.072 213.529 174.091 213.498 174.116C213.467 174.142 213.441 174.173 213.422 174.209C213.403 174.244 213.392 174.283 213.388 174.323C213.381 174.404 213.406 174.484 213.458 174.546C213.509 174.608 213.583 174.648 213.663 174.657L223.959 175.676H223.989C224.068 175.682 224.146 175.656 224.207 175.605C224.267 175.554 224.305 175.481 224.312 175.402H224.293ZM211.373 180.717C211.441 180.672 211.489 180.602 211.505 180.522C211.522 180.442 211.506 180.359 211.461 180.29L206.372 172.597C206.325 172.531 206.255 172.485 206.175 172.47C206.096 172.454 206.013 172.47 205.945 172.514C205.877 172.559 205.83 172.629 205.813 172.709C205.796 172.789 205.812 172.872 205.857 172.94L210.946 180.634C210.976 180.676 211.014 180.71 211.06 180.734C211.105 180.758 211.155 180.771 211.206 180.771C211.273 180.774 211.338 180.755 211.393 180.717H211.373ZM223.052 183.291C223.051 183.21 223.019 183.133 222.962 183.076C222.906 183.018 222.829 182.985 222.748 182.982L210.642 182.869C210.562 182.869 210.484 182.901 210.427 182.958C210.37 183.015 210.338 183.093 210.338 183.173C210.337 183.214 210.344 183.254 210.359 183.292C210.373 183.33 210.396 183.364 210.424 183.393C210.453 183.422 210.487 183.445 210.524 183.46C210.562 183.475 210.602 183.483 210.642 183.482L222.748 183.595C222.79 183.597 222.831 183.591 222.87 183.576C222.909 183.562 222.944 183.54 222.975 183.512C223.005 183.483 223.029 183.449 223.046 183.411C223.062 183.373 223.071 183.333 223.072 183.291H223.052ZM206.808 201.394C206.833 201.34 208.897 195.652 215.104 194.294C215.184 194.276 215.254 194.228 215.298 194.159C215.342 194.09 215.357 194.006 215.34 193.926C215.32 193.848 215.271 193.78 215.202 193.737C215.134 193.694 215.051 193.679 214.972 193.696C208.426 195.127 206.254 201.134 206.23 201.193C206.204 201.27 206.21 201.354 206.246 201.427C206.281 201.501 206.344 201.557 206.421 201.585H206.519C206.584 201.591 206.649 201.575 206.705 201.541C206.761 201.506 206.804 201.455 206.828 201.394H206.808ZM208.186 205.89C208.267 205.884 208.342 205.846 208.396 205.784C208.449 205.723 208.476 205.643 208.47 205.561C207.7 194 212.172 175.064 219.346 159.52C223.93 149.587 241.9 130.062 242.091 129.866C242.149 129.808 242.182 129.73 242.182 129.648C242.182 129.566 242.149 129.487 242.091 129.43C242.063 129.401 242.03 129.379 241.993 129.363C241.956 129.348 241.916 129.34 241.876 129.34C241.836 129.34 241.796 129.348 241.759 129.363C241.722 129.379 241.688 129.401 241.66 129.43C241.479 129.626 223.435 149.224 218.811 159.246C211.505 175.167 207.092 193.759 207.877 205.601C207.883 205.679 207.918 205.752 207.975 205.805C208.032 205.859 208.108 205.889 208.186 205.89ZM222.851 153.156C222.932 153.151 223.008 153.114 223.062 153.054C223.117 152.993 223.145 152.914 223.141 152.832L221.969 132.999C221.967 132.959 221.957 132.919 221.94 132.883C221.922 132.846 221.898 132.813 221.868 132.786C221.838 132.76 221.802 132.739 221.764 132.726C221.726 132.713 221.685 132.707 221.645 132.71C221.564 132.715 221.488 132.752 221.434 132.812C221.38 132.873 221.352 132.952 221.356 133.033L222.547 152.857C222.551 152.935 222.585 153.009 222.641 153.063C222.698 153.116 222.773 153.146 222.851 153.146V153.156ZM219.194 159.672C219.267 159.639 219.325 159.578 219.354 159.503C219.383 159.428 219.382 159.345 219.35 159.27L211.814 142.222C211.782 142.148 211.721 142.09 211.646 142.06C211.57 142.031 211.486 142.033 211.412 142.065C211.338 142.098 211.28 142.158 211.25 142.234C211.221 142.309 211.223 142.393 211.255 142.467L218.787 159.516C218.81 159.57 218.849 159.617 218.899 159.65C218.948 159.683 219.006 159.701 219.066 159.702C219.117 159.704 219.167 159.694 219.213 159.672H219.194ZM220.498 157.319L238.537 154.74C238.58 154.739 238.623 154.729 238.662 154.71C238.702 154.692 238.737 154.665 238.765 154.632C238.793 154.598 238.814 154.56 238.827 154.518C238.839 154.476 238.842 154.432 238.836 154.389C238.83 154.346 238.815 154.304 238.792 154.267C238.769 154.231 238.739 154.199 238.702 154.175C238.666 154.15 238.625 154.134 238.582 154.127C238.54 154.119 238.495 154.121 238.453 154.132L220.414 156.711C220.334 156.716 220.259 156.753 220.205 156.814C220.152 156.875 220.125 156.954 220.13 157.035C220.135 157.115 220.172 157.19 220.233 157.244C220.294 157.297 220.373 157.324 220.454 157.319H220.498ZM215.354 168.827C215.418 168.776 215.46 168.703 215.47 168.622C215.48 168.541 215.458 168.46 215.408 168.395L205.631 155.833C205.607 155.801 205.576 155.774 205.54 155.754C205.505 155.734 205.466 155.72 205.426 155.715C205.386 155.71 205.345 155.713 205.306 155.723C205.266 155.734 205.23 155.752 205.197 155.777C205.165 155.802 205.138 155.833 205.118 155.868C205.098 155.903 205.085 155.942 205.079 155.982C205.074 156.022 205.077 156.063 205.087 156.103C205.098 156.142 205.116 156.179 205.141 156.211L214.938 168.792C214.966 168.829 215.002 168.859 215.044 168.879C215.086 168.899 215.131 168.91 215.178 168.91C215.251 168.906 215.321 168.877 215.374 168.827H215.354ZM230.633 165.429C230.635 165.348 230.606 165.269 230.551 165.209C230.496 165.149 230.42 165.114 230.339 165.11L216.899 164.429C216.823 164.434 216.752 164.466 216.699 164.521C216.646 164.575 216.615 164.646 216.612 164.722C216.608 164.798 216.632 164.872 216.68 164.931C216.727 164.99 216.795 165.029 216.869 165.041L230.334 165.723C230.415 165.726 230.494 165.696 230.553 165.641C230.613 165.586 230.648 165.51 230.652 165.429H230.633ZM224.293 175.402C224.298 175.362 224.294 175.321 224.283 175.282C224.272 175.243 224.253 175.206 224.227 175.175C224.201 175.143 224.17 175.117 224.134 175.098C224.098 175.079 224.059 175.067 224.018 175.064L213.722 174.049C213.682 174.045 213.641 174.048 213.603 174.06C213.564 174.072 213.529 174.091 213.498 174.116C213.467 174.142 213.441 174.173 213.422 174.209C213.403 174.244 213.392 174.283 213.388 174.323C213.381 174.404 213.406 174.484 213.458 174.546C213.509 174.608 213.583 174.648 213.663 174.657L223.959 175.676H223.989C224.068 175.682 224.146 175.656 224.207 175.605C224.267 175.554 224.305 175.481 224.312 175.402H224.293ZM211.373 180.717C211.441 180.672 211.489 180.602 211.505 180.522C211.522 180.442 211.506 180.359 211.461 180.29L206.372 172.597C206.325 172.531 206.255 172.485 206.175 172.47C206.096 172.454 206.013 172.47 205.945 172.514C205.877 172.559 205.83 172.629 205.813 172.709C205.796 172.789 205.812 172.872 205.857 172.94L210.946 180.634C210.976 180.676 211.014 180.71 211.06 180.734C211.105 180.758 211.155 180.771 211.206 180.771C211.273 180.774 211.338 180.755 211.393 180.717H211.373ZM223.052 183.291C223.051 183.21 223.019 183.133 222.962 183.076C222.906 183.018 222.829 182.985 222.748 182.982L210.642 182.869C210.562 182.869 210.484 182.901 210.427 182.958C210.37 183.015 210.338 183.093 210.338 183.173C210.337 183.214 210.344 183.254 210.359 183.292C210.373 183.33 210.396 183.364 210.424 183.393C210.453 183.422 210.487 183.445 210.524 183.46C210.562 183.475 210.602 183.483 210.642 183.482L222.748 183.595C222.79 183.597 222.831 183.591 222.87 183.576C222.909 183.562 222.944 183.54 222.975 183.512C223.005 183.483 223.029 183.449 223.046 183.411C223.062 183.373 223.071 183.333 223.072 183.291H223.052ZM206.808 201.394C206.833 201.34 208.897 195.652 215.104 194.294C215.184 194.276 215.254 194.228 215.298 194.159C215.342 194.09 215.357 194.006 215.34 193.926C215.32 193.848 215.271 193.78 215.202 193.737C215.134 193.694 215.051 193.679 214.972 193.696C208.426 195.127 206.254 201.134 206.23 201.193C206.204 201.27 206.21 201.354 206.246 201.427C206.281 201.501 206.344 201.557 206.421 201.585H206.519C206.584 201.591 206.649 201.575 206.705 201.541C206.761 201.506 206.804 201.455 206.828 201.394H206.808Z" fill="black"/>
<path d="M216.193 197.246H202.312V200.119H203.523L206.028 215.794H212.476L214.982 200.119H216.193V197.246Z" fill="#90CAF9"/>
<path opacity="0.3" d="M216.193 197.246H202.312V200.119H203.523L206.028 215.794H212.476L214.982 200.119H216.193V197.246Z" fill="white"/>
<path d="M91.2203 110.361L75.0741 105.09L73.6374 101.295L70.3572 101.192L64.4047 100.064L65.1206 101.295L72.6127 106.733L74.4612 107.654L91.3478 116.475L91.2203 110.361Z" fill="white" stroke="#263238" stroke-width="1.00396" stroke-miterlimit="10"/>
<path d="M73.6374 101.295L72.0978 100.373L69.0235 101.501L69.5335 102.114L73.6374 101.295Z" fill="white" stroke="#263238" stroke-width="1.00396" stroke-linejoin="round"/>
<path d="M91.2203 110.361L75.0741 105.09L73.6374 101.295L70.3572 101.192L64.4047 100.064L65.1206 101.295L72.6127 106.733L74.4612 107.654L91.3478 116.475L91.2203 110.361Z" fill="white"/>
<path opacity="0.5" d="M91.2203 110.361L75.0741 105.09L73.6374 101.295L70.3572 101.192L64.4047 100.064L65.1206 101.295L72.6127 106.733L74.4612 107.654L91.3478 116.475L91.2203 110.361Z" fill="#90CAF9" stroke="#263238" stroke-width="1.00396" stroke-miterlimit="10"/>
<path d="M91.2203 110.361L75.0741 105.09L73.6374 101.295L70.3572 101.192L64.4047 100.064L65.1206 101.295L72.6127 106.733L74.4612 107.654L91.3478 116.475L91.2203 110.361Z" stroke="#263238" stroke-width="1.00396" stroke-miterlimit="10"/>
<path d="M73.6374 101.295L72.0978 100.373L69.0235 101.501L69.5335 102.114L73.6374 101.295Z" fill="white"/>
<path opacity="0.5" d="M73.6374 101.295L72.0978 100.373L69.0235 101.501L69.5335 102.114L73.6374 101.295Z" fill="#90CAF9" stroke="#263238" stroke-width="1.00396" stroke-linejoin="round"/>
<path d="M73.6374 101.295L72.0978 100.373L69.0235 101.501L69.5335 102.114L73.6374 101.295Z" stroke="#263238" stroke-width="1.00396" stroke-linejoin="round"/>
<path d="M94.6476 76.1515C94.6476 76.1515 94.3975 78.3579 95.0202 79.775C95.643 81.192 99.0997 85.9922 99.0997 85.9922L92.6471 91.1651C92.6471 91.1651 89.97 85.7716 89.46 84.8988C88.9501 84.026 88.3372 80.2702 89.9994 77.5783C91.6616 74.8865 94.0543 74.1608 94.6476 76.1515Z" fill="white"/>
<g style="mix-blend-mode:multiply" opacity="0.5">
<path d="M91.3331 83.2415L94.1328 89.0469L92.6422 91.17L89.8278 86.1442L91.3331 83.2415Z" fill="#90CAF9"/>
</g>
<path d="M94.6476 76.1515C94.6476 76.1515 94.3975 78.3579 95.0202 79.775C95.643 81.192 99.0997 85.9922 99.0997 85.9922L92.6471 91.1651C92.6471 91.1651 89.97 85.7716 89.46 84.8988C88.9501 84.026 88.3372 80.2702 89.9994 77.5783C91.6616 74.8865 94.0543 74.1608 94.6476 76.1515Z" stroke="#263238" stroke-width="1.00396" stroke-miterlimit="10"/>
<path d="M96.6481 72.1113C96.251 69.6597 93.4414 64.6731 88.9844 64.8643C86.0915 64.9918 84.7383 65.5753 83.483 66.2863C82.4599 66.8891 81.5062 67.6027 80.6392 68.4142C78.4622 71.0276 77.6973 71.7435 78.119 73.744C78.0844 74.5419 78.2094 75.3387 78.4867 76.0877C79.1535 77.8676 79.6095 79.0297 80.1881 79.8779C80.0116 80.7065 79.5507 82.8934 79.5262 83.3935C79.5017 83.8936 80.9971 83.5455 81.7522 83.3543C83.1545 86.4923 85.7238 88.6693 86.523 88.9194C87.9155 89.3558 90.1171 87.066 91.284 85.291C92.451 83.5161 91.5684 81.5205 91.5733 80.7262C91.5782 79.9318 94.1965 78.1863 95.1673 77.6322C96.1382 77.0782 97.0404 74.558 96.6481 72.1113Z" fill="white"/>
<g style="mix-blend-mode:multiply" opacity="0.5">
<path d="M78.1386 73.744C78.104 74.5419 78.229 75.3387 78.5063 76.0877C79.1731 77.8676 79.6291 79.0297 80.2077 79.8779C80.0312 80.7066 79.5703 82.8934 79.5458 83.3935C79.5213 83.8936 81.0167 83.5455 81.7718 83.3543C83.1741 86.4923 85.7434 88.6693 86.5426 88.9194C87.9351 89.3558 90.1367 87.066 91.3036 85.291C91.5952 84.8479 91.7844 84.3454 91.8577 83.8201C91.794 83.5896 91.7498 83.4474 91.7498 83.4474C91.7498 83.4474 91.0928 85.9726 89.7886 85.6441C88.4843 85.3155 86.4887 82.7021 85.3757 81.8C84.2627 80.8978 84.7187 79.7112 84.498 78.3677C84.2774 77.0243 80.9824 75.8426 80.7618 75.0728C80.5411 74.303 81.3109 71.1159 81.3109 71.1159C81.3109 71.1159 82.5612 69.4488 82.2916 70.1353C82.101 70.7305 82.0318 71.3579 82.0883 71.9803C82.1447 72.6027 82.3255 73.2075 82.6201 73.7587C82.8268 74.1937 83.1546 74.5597 83.5643 74.8128C83.974 75.0659 84.448 75.1953 84.9295 75.1856L86.1259 69.2576L83.6007 67.1688L80.6588 68.3946C78.4622 71.0277 77.712 71.7435 78.1386 73.744Z" fill="#90CAF9"/>
</g>
<path d="M96.6481 72.1113C96.251 69.6597 93.4414 64.6731 88.9844 64.8643C86.0915 64.9918 84.7383 65.5753 83.483 66.2863C82.4599 66.8891 81.5062 67.6027 80.6392 68.4142C78.4622 71.0276 77.6973 71.7435 78.119 73.744C78.0844 74.5419 78.2094 75.3387 78.4867 76.0877C79.1535 77.8676 79.6095 79.0297 80.1881 79.8779C80.0116 80.7065 79.5507 82.8934 79.5262 83.3935C79.5017 83.8936 80.9971 83.5455 81.7522 83.3543C83.1545 86.4923 85.7238 88.6693 86.523 88.9194C87.9155 89.3558 90.1171 87.066 91.284 85.291C92.451 83.5161 91.5684 81.5205 91.5733 80.7262C91.5782 79.9318 94.1965 78.1863 95.1673 77.6322C96.1382 77.0782 97.0404 74.558 96.6481 72.1113Z" stroke="#263238" stroke-miterlimit="10"/>
<path d="M80.7961 78.3972L81.2864 79.7995C81.2864 79.7995 82.3406 80.1476 83.6252 78.7453" stroke="#263238" stroke-miterlimit="10" stroke-linecap="round"/>
<path d="M84.4196 84.9478C84.4196 84.9478 85.5865 84.8301 86.0572 83.1925" stroke="#263238" stroke-miterlimit="10" stroke-linecap="round"/>
<path d="M79.9773 77.2253C79.9773 77.2253 80.3254 76.1711 82.4289 76.1711" stroke="#263238" stroke-miterlimit="10" stroke-linecap="round"/>
<path d="M90.7594 62.9129C89.2309 62.6931 87.6896 62.5751 86.1455 62.5598C86.1455 62.5598 81.5267 59.8974 77.0893 62.7364C72.6519 65.5753 74.7848 70.5471 74.7848 71.7876C74.7848 73.0282 73.3629 73.0331 74.2503 74.6315C75.1378 76.2299 78.1386 75.3474 78.1386 75.3474C78.1703 74.7445 78.3296 74.1552 78.606 73.6185C78.8824 73.0817 79.2696 72.6098 79.7419 72.2338C81.3404 70.9933 82.6152 70.7237 83.1447 71.0816C83.1447 71.0816 82.7917 73.744 83.3212 74.808C83.3212 74.808 85.0962 75.6955 85.6306 75.6955C86.1651 75.6955 85.2825 76.4457 87.0526 77.1125C87.3751 77.2283 87.72 77.2678 88.0603 77.2278C88.4006 77.1878 88.727 77.0695 89.0138 76.8821C89.2737 75.8034 89.8425 74.1804 90.9016 74.5579C92.4559 75.112 93.8729 78.9365 91.7694 80.2407C94.2995 80.7016 97.364 76.225 97.5454 72.1456C97.7268 68.0661 93.3875 63.3738 90.7594 62.9129Z" fill="#263238"/>
<path d="M83.2232 69.3311C83.2232 69.3311 84.5274 68.63 86.1259 70.1304C87.7243 71.6307 90.8329 73.6361 94.9516 72.5329" stroke="white" stroke-width="0.5" stroke-linecap="round" stroke-linejoin="round"/>
<path d="M83.0418 68.1299C83.0418 68.1299 83.939 66.7276 85.4394 66.7276C86.9398 66.7276 90.4456 68.831 93.2453 68.831" stroke="white" stroke-width="0.5" stroke-linecap="round" stroke-linejoin="round"/>
<path d="M82.0219 70.8315C82.0219 70.8315 80.3205 68.733 78.722 70.4344C77.1236 72.1358 78.1386 73.744 78.1386 73.744" stroke="white" stroke-width="0.5" stroke-linecap="round" stroke-linejoin="round"/>
<path d="M75.2212 72.2338C76.1962 71.3546 76.8023 70.1389 76.9177 68.831C77.1187 66.6295 80.1244 64.7271 82.0219 66.5314" stroke="white" stroke-width="0.5" stroke-linecap="round" stroke-linejoin="round"/>
<path d="M78.32 64.2269C78.32 64.2269 81.3256 61.3243 83.8263 65.0262" stroke="white" stroke-width="0.5" stroke-linecap="round" stroke-linejoin="round"/>
<path d="M102.782 206.944C102.782 206.944 104.631 209.817 104.425 211.666L104.224 213.514C104.224 213.514 97.4424 215.373 96.0058 215.373C94.5692 215.373 86.9643 214.652 86.9643 214.652L86.6358 213.348C86.6128 213.251 86.6236 213.15 86.6665 213.061C86.7094 212.971 86.7816 212.9 86.8712 212.857L93.6523 209.695L95.7901 207.356L102.782 206.944Z" fill="white" stroke="#263238" stroke-width="1.00396" stroke-miterlimit="10"/>
<path d="M97.0355 213.926C98.8742 214.068 102.365 212.946 104.39 212.23L104.248 213.514C104.248 213.514 97.4424 215.373 96.0058 215.373C94.5692 215.373 86.9643 214.652 86.9643 214.652L86.729 213.72C87.9449 213.725 94.6035 213.74 97.0355 213.926Z" fill="#90CAF9" stroke="#263238" stroke-width="1.00396" stroke-miterlimit="10"/>
<path d="M93.6621 209.695L83.7919 213.99C83.7919 213.99 82.9486 216.103 83.7919 216.525C84.6353 216.947 103.022 216.525 103.022 216.525C103.022 216.525 104.292 213.186 102.287 210.945C100.281 208.704 93.6621 209.695 93.6621 209.695Z" fill="white" stroke="#263238" stroke-width="1.00396" stroke-miterlimit="10"/>
<path d="M103.022 216.525C103.022 216.525 84.6353 216.947 83.792 216.525C83.385 216.319 83.3703 215.726 83.4634 215.162H103.346C103.281 215.625 103.173 216.082 103.022 216.525Z" fill="#90CAF9" stroke="#263238" stroke-width="1.00396" stroke-miterlimit="10"/>
<path d="M88.9942 135.063C88.9942 135.063 86.4152 146.493 85.4394 153.642C84.4637 160.79 83.89 175.113 84.0959 176.755C84.3019 178.398 94.5692 205.919 94.5692 205.919L95.5939 208.371L102.782 206.934C102.782 206.934 99.4969 196.461 98.2662 190.71C97.0355 184.958 94.3436 175.51 94.3436 173.867C94.3436 172.225 100.718 140.854 101.174 138.795C101.63 136.735 103.699 133.573 103.699 133.573L89.9356 133.293L88.9942 135.063Z" fill="#90CAF9" stroke="#263238" stroke-width="1.00396" stroke-miterlimit="10"/>
<path d="M88.9942 135.063C88.9942 135.063 87.484 145.502 88.1068 152.759C88.7295 160.016 90.068 175.466 90.068 177.765C90.068 180.065 93.7797 193.799 93.9906 198.113C94.3191 204.345 93.8582 207.429 93.8582 207.429L93.6376 209.69C93.6376 209.69 97.9671 210.308 98.9134 210.577C100.006 210.859 101.134 210.981 102.262 210.94C102.262 210.94 103.836 204.012 103.836 198.109C103.836 192.205 102.527 180.055 101.875 175.132C101.223 170.209 103.277 151.219 104.444 147.674C105.611 144.129 108.161 136.623 106.445 132.788C104.729 128.954 88.9942 135.063 88.9942 135.063Z" fill="#90CAF9" stroke="#263238" stroke-width="1.00396" stroke-miterlimit="10"/>
<path d="M108.352 130.866L108.195 135.534C108.195 135.534 105.4 136.088 101.635 136.74C98.526 137.28 90.7202 136.598 88.092 136.343C87.8526 136.322 87.6311 136.207 87.4759 136.023C87.3208 135.84 87.2444 135.602 87.2634 135.362L87.5184 131.146L108.352 130.866Z" fill="#263238"/>
<path d="M97.4277 84.3349C97.4277 84.3349 93.0149 89.1057 91.3527 92.0721C89.6905 95.0386 89.0335 99.5838 88.4108 103.163C87.7881 106.742 89.4748 115.147 88.9991 119.005L87.4939 131.16C87.4939 131.16 87.1702 131.984 88.2539 132.886C89.3375 133.788 94.628 134.117 99.4086 134.357C101.154 134.446 106.366 133.323 107.219 133.269C108.249 133.205 108.283 131.896 108.328 130.866C108.533 126.027 109.406 113.126 109.98 107.507C111.162 96.0486 104.694 84.987 97.4277 84.3349Z" fill="white" stroke="#263238" stroke-width="1.00396" stroke-miterlimit="10"/>
<g style="mix-blend-mode:multiply">
<path d="M109.441 114.024C109.637 111.479 109.833 109.17 110.004 107.507C110.053 107.017 110.083 106.527 110.107 106.036L98.3838 107.998L88.3127 104.565C88.3138 106.649 88.4316 108.732 88.6657 110.802L98.5456 113.568L109.441 114.024Z" fill="#90CAF9"/>
</g>
<g style="mix-blend-mode:multiply">
<path d="M96.9913 84.8154C96.3245 85.5558 95.0006 87.0611 93.7405 88.6595L101.184 96.2252L103.635 95.2445L96.9913 84.8154Z" fill="#90CAF9"/>
</g>
<path d="M97.4277 84.3349C97.4277 84.3349 93.0148 89.1057 91.3527 92.0721C90.8598 92.9737 90.4606 93.9233 90.1612 94.9062L99.036 84.6536C98.5117 84.4948 97.973 84.388 97.4277 84.3349Z" fill="#263238"/>
<g style="mix-blend-mode:multiply">
<path d="M88.754 101.231L98.3838 104.399L110.078 103.055C109.895 100.142 109.247 97.277 108.161 94.5679L98.732 98.3482L90.3034 94.5286C89.6142 96.7194 89.0962 98.9603 88.754 101.231Z" fill="#90CAF9"/>
</g>
<g style="mix-blend-mode:multiply">
<path d="M105.332 126.027C100.447 126.847 95.4359 126.437 90.7496 124.835L88.401 124.031L87.6704 129.915L90.3475 130.665C95.4369 132.088 100.756 132.498 106.003 131.871L108.166 131.611C108.278 131.373 108.342 131.115 108.352 130.851C108.411 129.542 108.514 127.64 108.646 125.458L105.332 126.027Z" fill="#90CAF9"/>
</g>
<g style="mix-blend-mode:multiply">
<path d="M106.641 118.015C101.756 118.838 96.7436 118.427 92.0587 116.819L89.0678 115.794C89.142 116.862 89.1272 117.935 89.0237 119L88.6755 121.83L91.6567 122.663C96.7441 124.088 102.062 124.499 107.308 123.874L108.779 123.698C108.901 121.736 109.043 119.648 109.195 117.583L106.641 118.015Z" fill="#90CAF9"/>
</g>
<path d="M60.6397 97.2803L70.1202 104.903L70.5288 104.395L61.0483 96.7721L60.6397 97.2803Z" fill="#263238"/>
<path d="M101.993 89.6255C101.993 89.6255 105.469 91.9937 105.547 97.5882C105.582 100.04 105.327 102.33 104.763 106.345C104.199 110.361 100.698 123.438 97.972 125.026C95.2458 126.615 91.0144 123.614 91.0144 123.614L70.5484 110.028L65.6011 106.032L63.1495 101.403L63.9193 99.932L69.9551 104.561L66.7043 101.555L67.3417 100.746L68.5185 101.565L71.9507 102.849L72.7009 107.753L73.76 108.478L93.3385 115.632C93.3385 115.632 93.0933 105.095 93.2747 103.08C93.4561 101.065 93.7062 95.9996 95.8636 92.3271" fill="white"/>
<g style="mix-blend-mode:multiply" opacity="0.5">
<path d="M93.2012 107.669C93.2012 111.307 93.3238 115.632 93.3238 115.632L73.7649 108.508L72.7058 107.782L71.9557 102.879L68.5234 101.594L67.3516 100.761L66.7141 101.57L69.9552 104.561L63.9193 99.932L63.1888 101.378L65.6403 106.007L70.5877 110.028L71.8331 110.856L98.8742 119.569L93.2012 107.669Z" fill="#90CAF9"/>
</g>
<path d="M101.993 89.6255C101.993 89.6255 105.469 91.9937 105.547 97.5882C105.582 100.04 105.327 102.33 104.763 106.345C104.199 110.361 100.698 123.438 97.972 125.026C95.2458 126.615 91.0144 123.614 91.0144 123.614L70.5484 110.028L65.6011 106.032L63.1495 101.403L63.9193 99.932L69.9551 104.561L66.7043 101.555L67.3417 100.746L68.5185 101.565L71.9507 102.849L72.7009 107.753L73.76 108.478L93.3385 115.632C93.3385 115.632 93.0933 105.095 93.2747 103.08C93.4561 101.065 93.7062 95.9996 95.8636 92.3271" stroke="#263238" stroke-width="1.00396" stroke-miterlimit="10"/>
<path d="M93.3385 115.632L100.811 121.025L102.748 117.593C102.748 117.593 104.086 116.539 104.282 115.745C104.479 114.95 104.228 113.661 104.429 112.867C104.631 112.072 105.631 111.327 105.724 109.405C105.817 107.483 105.724 105.88 105.724 105.88C105.724 105.88 107.342 99.2259 107.165 96.333C106.989 93.4401 104.199 88.3261 101.963 88.2133C99.7273 88.1006 96.8197 88.4389 94.5643 91.8515C92.3088 95.2641 92.7697 105.227 92.4167 105.85C92.0636 106.473 92.554 109.547 92.554 109.547C92.358 109.693 92.1954 109.88 92.0771 110.093C91.9587 110.307 91.8873 110.544 91.8675 110.788C91.8283 111.587 92.6912 113.553 92.6912 113.553L93.3385 115.632Z" fill="white" stroke="#263238" stroke-width="1.00396" stroke-miterlimit="10"/>
<g style="mix-blend-mode:multiply">
<path d="M92.6128 103.291C92.6282 104.146 92.5642 105.001 92.4216 105.845C92.1078 106.404 92.4657 108.929 92.5441 109.444C96.7471 110.75 101.191 111.085 105.543 110.425C105.636 110.084 105.692 109.734 105.709 109.38C105.807 107.463 105.709 105.855 105.709 105.855C105.709 105.855 105.851 105.262 106.048 104.36C101.541 104.646 97.0171 104.286 92.6128 103.291Z" fill="#90CAF9"/>
</g>
<g style="mix-blend-mode:multiply">
<path d="M94.2603 92.3958C93.5591 93.803 93.1669 95.9162 92.9413 98.0589C97.3925 99.7577 102.192 100.342 106.92 99.7603C107.109 98.6264 107.193 97.4774 107.17 96.3281C107.085 95.4196 106.871 94.528 106.533 93.6804C102.404 93.7768 98.2797 93.3451 94.2603 92.3958Z" fill="#90CAF9"/>
</g>
<path d="M92.6912 113.607L93.3238 115.632L100.796 121.025L102.733 117.593C102.733 117.593 104.072 116.539 104.268 115.745C104.303 115.607 104.324 115.465 104.331 115.323C100.394 115.255 96.4811 114.678 92.6912 113.607Z" fill="#263238"/>
<path d="M98.0995 210.514C98.0995 210.514 98.2662 206.267 99.0801 200.06C99.894 193.853 97.9377 185.037 97.6091 183.566C97.2806 182.095 97.7759 178.829 97.4473 177.682C97.1188 176.534 95.5302 171.641 96.4667 165.963C97.4032 160.285 98.1632 145.277 98.1632 145.277C98.1632 145.277 95.8048 143.36 95.1134 140.864C94.4221 138.368 94.9516 137.584 94.9516 137.584" stroke="#263238" stroke-width="1.00396" stroke-miterlimit="10"/>
<path d="M99.1929 137.814L98.2858 142.835" stroke="#263238" stroke-width="1.00396" stroke-miterlimit="10"/>
</svg>
